<?xml version="1.0" encoding="UTF-8"?>
<svg id="Capa_1" data-name="Capa 1" xmlns="http://www.w3.org/2000/svg" viewBox="0 0 1190.55 841.89">
  <defs>
    <style>
      .cls-1 {
        fill: #776b5d;
      }
    </style>
  </defs>
  <g>
    <g>
      <rect class="cls-1" x="224.99" y="393.52" width="205.17" height="48.08"/>
      <path class="cls-1" d="M224.99,517.5v33.69c0,9.37,7.6,16.97,16.97,16.97h171.21c9.38,0,16.99-7.6,16.99-16.99v-33.68h-205.17Z"/>
      <rect class="cls-1" x="224.99" y="455.51" width="205.17" height="48.08"/>
    </g>
    <g>
      <g>
        <path class="cls-1" d="M248.85,326.67c0-20.37,7.77-38.95,20.51-52.94h-27.4c-9.37,0-16.96,7.59-16.96,16.96v71.97c0,9.36,7.59,16.96,16.96,16.96h27.41c-12.73-13.99-20.51-32.58-20.51-52.94Z"/>
        <path class="cls-1" d="M385.8,273.72c12.73,13.99,20.51,32.58,20.51,52.94s-7.77,38.95-20.51,52.94h27.41c9.36,0,16.95-7.59,16.95-16.95v-71.99c0-9.36-7.59-16.95-16.95-16.95h-27.41Z"/>
      </g>
      <path class="cls-1" d="M367.74,273.72h-80.34c-15.98,12.16-26.32,31.36-26.32,52.94s10.34,40.79,26.32,52.94h80.34c15.98-12.16,26.32-31.36,26.32-52.94s-10.34-40.79-26.32-52.94ZM327.58,360.49c-18.68,0-33.83-15.15-33.83-33.83s15.15-33.83,33.83-33.83,33.83,15.14,33.83,33.83-15.15,33.83-33.83,33.83Z"/>
    </g>
  </g>
  <g>
    <g>
      <path class="cls-1" d="M503.67,513.85c.93-1.58,2.18-2.81,3.78-3.7,1.59-.89,3.33-1.33,5.23-1.33,2.17,0,4.09.53,5.78,1.6,1.69,1.06,2.91,2.57,3.67,4.52h-4.01c-.53-1.07-1.26-1.87-2.2-2.4-.94-.53-2.02-.79-3.25-.79-1.35,0-2.55.3-3.6.91-1.05.61-1.88,1.47-2.47,2.61-.6,1.13-.89,2.45-.89,3.95s.3,2.82.89,3.95c.59,1.13,1.42,2.01,2.47,2.62,1.05.61,2.25.92,3.6.92,1.23,0,2.31-.26,3.25-.79.94-.53,1.67-1.33,2.2-2.4h4.01c-.76,1.95-1.99,3.45-3.67,4.51-1.69,1.05-3.62,1.58-5.78,1.58-1.91,0-3.66-.44-5.24-1.33-1.58-.89-2.83-2.12-3.76-3.7-.93-1.58-1.39-3.37-1.39-5.36s.46-3.78,1.39-5.36Z"/>
      <path class="cls-1" d="M539.6,511.77v5.97h7.03v2.72h-7.03v6.23h7.9v2.72h-11.24v-20.37h11.24v2.72h-7.9Z"/>
      <path class="cls-1" d="M578.57,529.42h-3.34l-10.04-15.19v15.19h-3.34v-20.37h3.34l10.04,15.16v-15.16h3.34v20.37Z"/>
      <path class="cls-1" d="M606.35,509.08v2.72h-5.42v17.62h-3.34v-17.62h-5.45v-2.72h14.2Z"/>
      <path class="cls-1" d="M630.53,529.42l-4.68-8.14h-2.55v8.14h-3.34v-20.35h7.03c1.56,0,2.88.27,3.97.82,1.08.55,1.89,1.28,2.43,2.2.54.92.8,1.94.8,3.07,0,1.33-.39,2.53-1.16,3.62-.77,1.08-1.96,1.82-3.56,2.21l5.03,8.43h-3.98ZM623.3,518.62h3.69c1.25,0,2.19-.31,2.82-.94.63-.62.95-1.46.95-2.52s-.31-1.88-.94-2.47c-.62-.6-1.57-.89-2.84-.89h-3.69v6.82Z"/>
      <path class="cls-1" d="M652.76,528.3c-1.59-.89-2.85-2.13-3.78-3.72-.93-1.59-1.39-3.38-1.39-5.37s.46-3.78,1.39-5.36c.93-1.58,2.18-2.81,3.78-3.7,1.59-.89,3.33-1.33,5.23-1.33s3.66.44,5.25,1.33c1.59.89,2.84,2.12,3.76,3.7.92,1.58,1.38,3.37,1.38,5.36s-.46,3.78-1.38,5.37c-.92,1.59-2.17,2.83-3.76,3.72-1.59.89-3.34,1.33-5.25,1.33s-3.64-.44-5.23-1.33ZM661.59,525.81c1.05-.61,1.88-1.49,2.47-2.63.6-1.14.89-2.46.89-3.97s-.3-2.82-.89-3.95-1.42-2-2.47-2.61c-1.05-.61-2.25-.91-3.6-.91s-2.55.3-3.6.91c-1.05.61-1.88,1.47-2.47,2.61-.6,1.13-.89,2.45-.89,3.95s.3,2.83.89,3.97c.59,1.14,1.42,2.02,2.47,2.63,1.05.61,2.25.92,3.6.92s2.55-.31,3.6-.92Z"/>
      <path class="cls-1" d="M712.1,510.32c1.63.83,2.89,2.02,3.78,3.57.89,1.55,1.33,3.36,1.33,5.43s-.44,3.86-1.33,5.39c-.89,1.52-2.15,2.69-3.78,3.5-1.63.81-3.53,1.21-5.69,1.21h-6.65v-20.35h6.65c2.17,0,4.06.42,5.69,1.25ZM711.88,524.77c1.27-1.29,1.9-3.1,1.9-5.44s-.63-4.21-1.9-5.53c-1.27-1.33-3.09-1.99-5.47-1.99h-3.31v14.9h3.31c2.38,0,4.21-.64,5.47-1.93Z"/>
      <path class="cls-1" d="M734.1,511.77v5.97h7.03v2.72h-7.03v6.23h7.9v2.72h-11.24v-20.37h11.24v2.72h-7.9Z"/>
      <path class="cls-1" d="M795.63,509.08v20.35h-3.34v-13.93l-6.21,13.93h-2.31l-6.24-13.93v13.93h-3.34v-20.35h3.6l7.14,15.95,7.11-15.95h3.57Z"/>
      <path class="cls-1" d="M822.53,525.27h-8.52l-1.46,4.16h-3.48l7.29-20.37h3.86l7.29,20.37h-3.51l-1.46-4.16ZM821.59,522.54l-3.31-9.45-3.34,9.45h6.65Z"/>
      <path class="cls-1" d="M843.93,528.91c-1.09-.48-1.95-1.16-2.58-2.03-.62-.88-.94-1.9-.94-3.07h3.57c.08.88.42,1.6,1.04,2.17.61.57,1.48.85,2.59.85s2.05-.28,2.69-.83c.64-.56.97-1.27.97-2.15,0-.68-.2-1.24-.6-1.67-.4-.43-.9-.76-1.49-1s-1.42-.49-2.47-.76c-1.33-.35-2.41-.71-3.23-1.07-.83-.36-1.54-.92-2.12-1.68-.59-.76-.88-1.78-.88-3.04,0-1.17.29-2.2.88-3.07.59-.88,1.41-1.55,2.46-2.02,1.05-.47,2.27-.7,3.66-.7,1.97,0,3.59.49,4.85,1.48,1.26.98,1.96,2.34,2.09,4.05h-3.69c-.06-.74-.41-1.38-1.05-1.9-.64-.53-1.49-.79-2.55-.79-.96,0-1.74.25-2.34.73-.61.49-.91,1.19-.91,2.11,0,.62.19,1.14.57,1.54.38.4.86.72,1.45.95.59.23,1.39.49,2.4.76,1.35.37,2.44.74,3.29,1.11.85.37,1.57.94,2.17,1.71.59.77.89,1.8.89,3.09,0,1.03-.28,2.01-.83,2.93-.56.92-1.37,1.65-2.43,2.21-1.06.56-2.32.83-3.76.83-1.37,0-2.6-.24-3.69-.72Z"/>
      <path class="cls-1" d="M881.11,525.27h-8.52l-1.46,4.16h-3.48l7.29-20.37h3.86l7.29,20.37h-3.51l-1.46-4.16ZM880.17,522.54l-3.31-9.45-3.34,9.45h6.65Z"/>
      <path class="cls-1" d="M910.58,509.08v14.67c0,1.81-.55,3.25-1.65,4.3-1.1,1.05-2.55,1.58-4.35,1.58s-3.24-.53-4.35-1.58-1.65-2.49-1.65-4.3h3.37c.02.9.25,1.61.69,2.14.44.53,1.09.79,1.95.79s1.51-.27,1.96-.8c.45-.54.67-1.24.67-2.12v-14.67h3.37Z"/>
      <path class="cls-1" d="M929.58,511.77v5.97h7.03v2.72h-7.03v6.23h7.9v2.72h-11.24v-20.37h11.24v2.72h-7.9Z"/>
      <path class="cls-1" d="M954.84,528.91c-1.09-.48-1.95-1.16-2.58-2.03-.62-.88-.94-1.9-.94-3.07h3.57c.08.88.42,1.6,1.04,2.17.61.57,1.48.85,2.59.85s2.05-.28,2.69-.83c.64-.56.97-1.27.97-2.15,0-.68-.2-1.24-.6-1.67-.4-.43-.9-.76-1.49-1s-1.42-.49-2.47-.76c-1.33-.35-2.41-.71-3.23-1.07-.83-.36-1.54-.92-2.12-1.68-.59-.76-.88-1.78-.88-3.04,0-1.17.29-2.2.88-3.07.59-.88,1.41-1.55,2.46-2.02,1.05-.47,2.27-.7,3.66-.7,1.97,0,3.59.49,4.85,1.48,1.26.98,1.96,2.34,2.09,4.05h-3.69c-.06-.74-.41-1.38-1.05-1.9-.64-.53-1.49-.79-2.55-.79-.96,0-1.74.25-2.34.73-.61.49-.91,1.19-.91,2.11,0,.62.19,1.14.57,1.54.38.4.86.72,1.45.95s1.39.49,2.4.76c1.35.37,2.44.74,3.29,1.11.85.37,1.57.94,2.17,1.71.59.77.89,1.8.89,3.09,0,1.03-.28,2.01-.83,2.93-.56.92-1.37,1.65-2.43,2.21-1.06.56-2.32.83-3.76.83-1.37,0-2.6-.24-3.69-.72Z"/>
    </g>
    <g>
      <g id="NXNVh7.tif">
        <g>
          <path class="cls-1" d="M710.88,481.09c8.45-8.78,19.38-16.27,28.02-21.05,2.42-1.34,14.81-6.44,15.14-7.21.65-1.55-1.65-.98-2.44-1.04-20.52-1.48-42.77-9.54-49.04-31.25-9.76-33.83,22.4-55.24,52.77-53.96,5.78-26.09,30.53-40.07,51.78-19.09v21.98c-1.64.34-1.12-.2-1.57-.9-4-6.24-7.18-12-13.16-16.83-16.32-13.18-29.03-2.58-32.77,14.94,16.77,1.25,34.43,8.72,42.29,24.39,5.48,10.93,5.97,24.63.81,35.76-9.61,20.72-30.65,20.96-48.45,30.43-10.26,5.46-20.78,13.74-28.38,23.79M730.59,438.92c9.62,8.71,23.61,10.98,35.81,6.73,35.49-12.35,27.77-82.16-18.13-76.02-30.85,4.12-38.66,50.29-17.68,69.29Z"/>
          <path class="cls-1" d="M571.77,312.26v114.41l2.48-.66,49.17-47.74c-.58-2.74-11.36-4.45-9.75-8.8h30.38l1.05,1.74c-.38,1.59-14.54,5.6-17.11,7.33-6.08,4.08-20.43,18.73-26.2,24.75-1.13,1.18-3.5,3.1-3.33,4.8l41.16,63.49c.9,1.94,9.18,6.25,9.52,6.87.41.75.07,1.8.15,2.65h-34.92c-.79-4.06,5.3-6.5,3.67-10.26l-33.45-50.33c-.68-.14-1.27.31-1.82.61-.63.34-9.98,9.43-10.34,10.05-.27.47-.65.86-.64,1.45v39.04c.61,3.21,7.22,5.31,6.27,9.43h-30.73c-.65-4.65,5.77-5.87,6.32-10.08l-.4-149.66c-2.29-2.97-6.78-4.73-5.92-9.08h24.44Z"/>
          <path class="cls-1" d="M835.05,378.88c5.87-7.92,18.05-11.47,27.6-12.2,22.77-1.73,47.21,8.04,52.04,32.41l.02,71.84c.67,3.98,7.58,5.97,6.94,10.15h-24.44v-13.6c0-.1-.85-1.84-1.04-1.74-2.36,3.45-5.2,7.25-8.58,9.73-20.89,15.36-67.45,10.48-69.98-20.56-2.99-36.66,41.34-46.68,69.48-49.17,2.06-.18,9.58.8,10.04-1.11-.8-5.29-.63-9.89-2.21-15.09-8.12-26.62-35.22-25.15-50.29-5.25-3.51,4.63-5.28,9.42-7.95,14.37-.5.93.37,1.88-1.62,1.5v-21.28ZM897.2,450.04v-39.07c-1.71-1.63-5.65-1.21-8.06-1.07-22.53,1.25-52.82,12.25-54.12,38.71-1.9,38.67,58.94,40.46,62.18,1.43Z"/>
          <path class="cls-1" d="M502.63,481.09c-2.34-2.48,7.69-7.08,7.02-10.08v-90.77c.28-4.89-7.72-5.97-7.02-10.77h24.09l1.05,1.05v101.85c0,.42,5.01,4.51,5.75,6.12.15.32.36.61.45.96l-.96,1.64h-30.38Z"/>
          <path class="cls-1" d="M657.67,481.09c-.02-4,4.22-5.28,6.32-7.98,1.56-30.7.17-61.95.7-92.87.27-4.89-7.72-5.97-7.03-10.77h24.09l1.05,1.05v101.85c0,.42,5.01,4.51,5.75,6.12.15.32.36.61.45.96l-.96,1.64h-30.38Z"/>
          <path class="cls-1" d="M934.22,481.09c-.02-4,4.22-5.28,6.32-7.98,1.56-30.7.17-61.95.7-92.87.27-4.89-7.72-5.97-7.03-10.77h24.09l1.05,1.05v101.85c0,.42,5.01,4.51,5.75,6.12.15.32.36.61.45.96l-.96,1.64h-30.38Z"/>
          <path class="cls-1" d="M516.41,323.58c9.55-1.96,15.35,11.12,6.7,16.47-12.43,7.69-19.4-13.86-6.7-16.47Z"/>
          <path class="cls-1" d="M671.45,323.58c9.55-1.96,15.35,11.12,6.7,16.47-12.43,7.69-19.4-13.86-6.7-16.47Z"/>
          <path class="cls-1" d="M947.99,323.58c9.55-1.96,15.35,11.12,6.7,16.47-12.43,7.69-19.4-13.86-6.7-16.47Z"/>
        </g>
      </g>
      <path class="cls-1" d="M783.4,470.31c3.66-4.4,11.95-13.19,17.88-7.27,4.23,4.22.63,13.12-1.84,17.55-.09.17-.2.33-.3.5h6.78c2.57-15.42-1.63-30.32-20.05-28-13.35,1.68-22.25,15.09-30.24,28h19.56c2.6-3.56,5.24-7.21,8.21-10.78Z"/>
    </g>
  </g>
</svg>
